<?xml version="1.0" encoding="UTF-8" standalone="no"?>
<svg width="466px" height="382px" viewBox="0 0 466 382" version="1.1" xmlns="http://www.w3.org/2000/svg" xmlns:xlink="http://www.w3.org/1999/xlink" xmlns:sketch="http://www.bohemiancoding.com/sketch/ns">
    <!-- Generator: Sketch 3.1.1 (8761) - http://www.bohemiancoding.com/sketch -->
    <title>Rectangle 7 + Group + mercury</title>
    <desc>Created with Sketch.</desc>
    <defs></defs>
    <g id="Welcome" stroke="none" stroke-width="1" fill="none" fill-rule="evenodd" sketch:type="MSPage">
        <g id="Fortuna-Icon" sketch:type="MSArtboardGroup" transform="translate(-267.000000, -327.000000)" fill="#FFFFFF">
            <g id="Rectangle-7-+-Group-+-mercury" sketch:type="MSLayerGroup" transform="translate(267.000000, 327.000000)">
                <g id="Group" sketch:type="MSShapeGroup">
                    <g id="Shape">
                        <path d="M390.1575,308.31721 C375.974237,312.120948 360.839676,313.344011 347.065203,318.048319 C370.395032,298.015102 369.06322,267.017404 384.628436,243.422482 C389.586729,236.741944 393.685001,229.739559 399.464744,223.400207 C389.996809,242.420848 394.102795,267.098508 383.225921,285.556547 C379.038937,292.888516 373.050942,300.001628 366.429161,305.760344 C368.592718,305.67924 370.486297,303.803441 372.388893,302.550756 C390.055941,284.894794 413.136381,279.957469 432.247093,265.612806 C439.90242,259.503899 446.913719,251.498588 450.27924,242.840554 C446.66304,272.133693 417.563749,299.589647 390.1575,308.31721 L390.1575,308.31721 L390.1575,308.31721 Z"></path>
                        <path d="M453.804161,189.714323 C445.160256,202.032554 434.703743,213.499784 426.718017,226.01885 C427.608893,216.106852 428.781291,203.918649 424.925983,194.529346 C418.245084,174.310097 412.37534,153.780565 410.48176,131.590242 L410.74272,123.104726 C415.770426,145.76625 437.99856,161.344285 436.596045,186.763511 C437.105104,192.923912 435.202521,198.161212 434.050685,203.578768 L434.432489,203.979161 L435.433915,202.855224 C438.730022,190.386359 440.393497,177.275068 445.518918,165.641754 C452.802735,148.901168 461.89787,132.006085 458.191683,111.793271 C469.270399,135.623792 465.913869,167.463488 453.804161,189.714323 L453.804161,189.714323 L453.804161,189.714323 Z"></path>
                        <path d="M440.160813,61.3243101 C454.736174,81.1064761 457.930723,112.631392 447.314795,135.322539 C443.357929,144.938425 440.563193,155.185163 439.008977,165.828431 C438.267234,163.992551 438.097539,161.524528 437.43549,159.478782 C431.637739,137.267854 410.663013,121.43878 402.037103,100.497913 C399.301486,93.6500112 396.969538,86.5742347 395.676295,79.1405556 C404.893552,96.2133106 427.608893,105.031628 433.800006,123.846291 C436.336362,128.604665 436.193666,134.550071 437.767153,139.666361 C438.097539,139.666361 438.427925,139.420451 438.427925,139.084433 C435.702602,119.703305 436.534333,99.4190367 439.160677,80.2786514 C439.008977,69.9109031 437.99856,59.8540588 432.247093,51.8288013 C435.935273,53.9807526 437.596181,58.1140753 440.160813,61.3243101 L440.160813,61.3243101 L440.160813,61.3243101 Z"></path>
                        <path d="M429.884276,57.5270057 C433.712598,74.8617542 428.120532,91.7439565 431.637739,109.245422 L431.506627,109.396056 C422.090097,90.8517573 402.098802,82.0997391 388.343614,67.257482 C380.372039,58.4501067 376.90625,47.7160711 374.912389,36.3505379 C382.793976,55.3801959 404.061807,59.5733975 416.271784,75.6091075 C420.357209,79.305994 421.690298,84.4274382 424.324356,88.6199806 L424.755011,88.2034909 C417.733431,73.1919459 415.380908,56.2981422 410.48176,40.2881795 C408.028955,33.3508023 403.16065,26.5344486 396.628871,22.1603709 C412.656875,25.4407677 426.548322,42.1987429 429.884276,57.5270057 L429.884276,57.5270057 L429.884276,57.5270057 Z"></path>
                        <path d="M387.032377,17.7714882 C399.103515,28.5911367 404.563166,42.6004276 408.0881,57.1156707 L410.081948,61.7253488 C392.561441,49.1058642 376.645277,32.1418985 365.457301,14.2258811 L351.793391,0.382028547 C363.805397,5.48286709 376.75584,8.52766353 387.032377,17.7714882 L387.032377,17.7714882 L387.032377,17.7714882 Z"></path>
                        <path d="M110.320445,2.67947173 C98.2094605,13.3124435 89.8097973,26.7597528 80.825212,39.2994252 C72.771363,49.2860943 62.4691166,55.8713563 53.3392683,64.4592282 C58.267995,54.2266492 58.447971,42.0036946 65.438695,32.604095 C75.3861364,15.2236397 93.8322198,9.10894561 110.320445,2.67947173 L110.320445,2.67947173 L110.320445,2.67947173 Z"></path>
                        <path d="M44.0885891,39.7062514 C49.9788949,32.3729902 57.4465449,27.2766603 65.8500651,25.1247091 C49.5328118,36.3505379 50.5946599,56.4680893 45.4216782,73.1919459 C43.772341,79.376156 40.9081786,85.0737275 39.4812445,91.4130798 L39.8964715,91.7439565 C42.6115139,84.5774256 47.3834066,77.8061328 53.3392683,71.9585738 C64.9283329,61.2444978 82.0721833,54.5671762 87.751657,38.7181431 C87.4919871,60.7423952 69.1461594,78.0571841 51.592229,90.4352808 C44.3534061,96.7952255 37.3729762,104.04352 33.3865305,112.219411 C32.9957355,106.662822 34.2067037,101.08369 33.8120517,95.1312179 C31.9030314,75.9052196 30.5159442,53.9607929 44.0885891,39.7062514 L44.0885891,39.7062514 L44.0885891,39.7062514 Z"></path>
                        <path d="M11.0735685,105.448764 C10.5824914,85.9659267 18.6569155,70.0621693 30.0351612,55.5456343 C30.3655341,55.3801959 30.6007851,55.0493324 31.0263063,55.1291446 C18.5013716,74.1903505 28.8627499,98.1998235 28.2919789,119.873252 L26.6400616,142.063576 C26.8856067,142.224505 26.8856067,142.8914 27.4666587,142.635194 C28.2071248,140.162017 28.3678158,137.518905 28.8627499,134.974919 C31.8130433,117.075645 47.3345555,104.375043 60.8917724,92.005304 C63.7867777,88.7699681 66.3462761,85.4850625 67.8336323,81.6884041 C66.7267901,90.600706 63.9371877,99.5896166 60.2451514,107.83182 C49.6935028,128.439873 30.2009861,145.349114 26.6400616,168.942757 C24.9123073,146.332727 9.54121836,129.428627 11.0735685,105.448764 L11.0735685,105.448764 L11.0735685,105.448764 Z"></path>
                        <path d="M1.59791927,133.154477 C3.00043446,127.061022 4.07256356,120.755142 6.72075994,115.163789 C1.70333531,140.920325 19.0014396,159.478782 24.6757794,181.804288 C27.0501547,190.154622 27.6312067,199.12294 31.0263063,206.958304 C31.3425413,207.12953 31.6176393,206.798653 31.8130433,206.547602 C23.3645292,182.831657 35.5603679,160.793259 47.8153385,142.224505 C50.7951979,137.193183 52.5126712,131.590242 53.9948934,125.807057 C55.2971397,136.540447 52.5872312,148.901168 51.0304621,160.04526 C48.0505895,174.225117 43.602659,187.67244 39.7306334,201.431312 C37.182706,210.028847 37.8524692,219.728422 39.1611393,228.736646 L37.9334663,227.754325 C28.948881,211.161788 11.1584095,198.220444 5.8748778,180.093282 C1.52721627,165.641754 -1.36266825,148.901168 1.59791927,133.154477 L1.59791927,133.154477 L1.59791927,133.154477 Z"></path>
                        <path d="M0.786750169,183.459938 C2.76518345,210.760117 32.0791504,225.185884 45.6672233,247.786897 C48.8823337,252.411393 51.6719361,257.527669 55.9681797,261.399011 C55.2971397,258.490676 52.5872312,256.043259 51.592229,253.064116 C46.8383314,243.584691 45.1054432,232.288687 46.2482753,220.831753 C47.5646595,206.887496 53.4048374,193.947431 51.1757251,179.280908 C63.1157377,205.063191 59.4892572,237.244047 66.1650232,265.181511 C67.9133393,271.291696 71.4446979,276.74788 73.7586511,282.5877 C49.2268578,265.854839 15.7760482,249.934352 4.89273672,219.267517 C0.305954011,208.693765 -0.205685028,195.603067 0.786750169,183.459938 L0.786750169,183.459938 L0.786750169,183.459938 Z"></path>
                        <path d="M15.4405151,246.151853 C29.118576,277.140547 63.3754076,279.707696 86.3440079,298.577717 C90.5708254,302.329314 94.999484,305.519589 99.7713767,307.745578 L100.016922,307.495819 C94.7436711,302.720703 88.6438232,297.282554 84.9517737,291.093822 C71.5089769,272.374435 76.2371524,246.151853 66.1650232,226.01885 C75.3167103,236.982699 83.6392465,248.379121 89.1644663,260.817083 C97.3828634,281.121312 100.523414,304.054493 119.540281,319.402715 C98.9602076,312.610171 74.8500653,314.507867 56.6855037,301.816915 C36.8523331,289.609412 19.1518497,268.903499 15.4405151,246.151853 L15.4405151,246.151853 L15.4405151,246.151853 Z"></path>
                        <path d="M50.5946599,303.963079 C72.525831,328.942639 108.361297,320.607756 137.575008,327.145373 C141.701556,327.70928 145.478447,329.364929 149.851831,328.692879 C146.369323,326.486204 141.537008,326.725667 137.735699,324.71984 C114.836525,316.663035 111.477428,291.835388 99.0463386,275.093509 C114.92779,285.655673 128.279322,299.90121 142.930533,313.704498 C153.461606,322.943168 166.138228,327.207177 179.494894,329.926252 C176.28493,331.100391 172.077385,330.778531 168.632157,331.682319 C144.636422,337.591668 117.977075,347.250045 92.5299868,338.603599 C75.9864734,333.386892 58.9184731,320.285897 50.5946599,303.963079 L50.5946599,303.963079 L50.5946599,303.963079 Z"></path>
                        <path d="M348.258176,362.189503 C323.545116,371.425602 297.753504,361.767226 278.451244,347.108429 C270.636503,342.133755 263.747338,334.970441 253.639206,335.603863 C249.972865,335.534334 246.437663,335.714578 243.321531,336.615794 C262.073582,345.354932 279.49253,357.402811 295.418976,372.8109 C292.734789,375.880151 289.258706,378.751138 285.984463,381.398125 C270.636503,364.836491 253.639206,348.895398 234.6082,339.584628 C230.881451,340.068709 227.335954,342.313999 223.975568,344.121573 C208.482345,353.931862 193.16266,366.55136 181.644299,382.000646 L171.746999,373.815092 C187.543609,357.812208 205.016555,345.354932 224.131125,336.456143 C205.348218,330.49787 193.0881,346.256149 178.830278,354.271756 C162.216074,365.889619 138.321898,371.34579 118.243182,363.330183 C107.444712,359.228395 96.9830644,353.187725 89.1644663,343.369698 C104.96621,354.271756 128.500435,355.414993 146.470882,348.334075 C170.584881,337.859463 195.642452,324.580795 224.712177,330.930457 C229.248818,331.010269 233.656902,335.534334 237.942865,331.682319 C259.548797,326.063927 284.009887,329.926252 302.611528,339.816366 L321.783939,347.512684 C339.603977,354.112105 362.64328,352.286522 377.917957,341.412795 C370.064646,351.202491 359.336891,358.216464 348.258176,362.189503 L348.258176,362.189503 L348.258176,362.189503 Z"></path>
                        <path d="M374.741403,336.615794 C346.9945,347.108429 319.080468,334.228875 292.494391,329.926252 L287.375407,329.274807 L287.375407,329.112586 C300.088032,326.223564 312.427844,322.433339 322.546257,313.284791 C337.449424,298.938203 350.710968,284.171263 367.260905,272.866241 C354.98794,288.625799 353.686971,311.057523 333.412864,321.189684 C328.395426,324.477807 322.062907,325.059721 316.884778,327.549629 C324.268878,327.70928 331.029484,325.059721 338.341591,324.318156 C365.528004,320.04385 396.628871,324.428883 415.701013,301.234987 C408.620301,317.396875 390.887685,330.930457 374.741403,336.615794 L374.741403,336.615794 L374.741403,336.615794 Z"></path>
                        <path d="M425.1561,258.430165 C414.198229,265.612806 403.091237,272.274017 392.561441,280.440258 L392.561441,279.437344 C408.689727,252.592915 400.80556,215.715464 410.74272,186.172565 L414.448908,176.276018 C412.37534,194.679979 420.357209,210.269589 419.796719,228.736646 C419.236229,239.892313 415.600744,249.783719 409.751575,258.691525 L410.74272,258.691525 C418.644883,248.298017 424.815433,237.244047 434.050685,227.343636 C448.385648,213.499784 462.959719,199.304462 464.84174,180.093282 C469.710045,212.164702 451.740887,240.273392 425.1561,258.430165 L425.1561,258.430165 L425.1561,258.430165 Z"></path>
                    </g>
                </g>
                <text id="mercury" sketch:type="MSTextLayer" font-family="Times New Roman" font-size="62" font-weight="normal" sketch:alignment="middle">
                    <tspan x="91.4594727" y="204">FORTUNA</tspan>
                </text>
            </g>
        </g>
    </g>
</svg>